<svg xmlns="http://www.w3.org/2000/svg" viewBox="0 0 240 240">
  <defs>
    <linearGradient id="airplane-body" x1="34" x2="193" y1="146" y2="84" gradientUnits="userSpaceOnUse">
      <stop stop-color="#38bdf8"/>
      <stop offset="1" stop-color="#0f172a"/>
    </linearGradient>
    <linearGradient id="airplane-wing" x1="72" x2="176" y1="182" y2="74" gradientUnits="userSpaceOnUse">
      <stop stop-color="#f8fafc"/>
      <stop offset="1" stop-color="#cbd5e1"/>
    </linearGradient>
  </defs>
  <g stroke-linecap="round" stroke-linejoin="round">
    <path
      d="M20 154 104 124 146 34c3-7 11-10 18-8l10 3c7 2 11 10 9 17l-18 64 45 13c6 2 10 7 10 13v6c0 6-5 12-11 12l-49-4-27 52c-3 7-11 10-18 8l-7-2c-7-2-11-9-10-16l6-34-44-8c-15-3-26-16-26-31 0-10 7-19 16-22Z"
      fill="url(#airplane-body)"
      stroke="#fff"
      stroke-width="12"
    />
    <path
      d="M30 154 107 126l38-82 31 9-17 59 49 16-54-4-29 55-5-1 7-40-56-10c-10-2-17-10-17-20 0-5 3-10 7-12Z"
      fill="url(#airplane-body)"
      opacity=".9"
    />
    <path
      d="M118 86c18-6 33-6 46 0"
      fill="none"
      stroke="url(#airplane-wing)"
      stroke-width="8"
    />
    <circle cx="155" cy="79" r="5" fill="#f8fafc"/>
    <circle cx="140" cy="84" r="4" fill="#f8fafc"/>
    <circle cx="127" cy="90" r="4" fill="#f8fafc"/>
    <path d="M181 124h18" fill="none" stroke="#fb7185" stroke-width="8"/>
    <path d="M70 148 89 151" fill="none" stroke="#7dd3fc" stroke-width="10"/>
  </g>
</svg>
